# Made in Blockbench 4.1.3
mtllib block.mtl

o cube
v 0.5 1 0.5
v 0.5 1 -0.5
v 0.5 0 0.5
v 0.5 0 -0.5
v -0.5 1 -0.5
v -0.5 1 0.5
v -0.5 0 -0.5
v -0.5 0 0.5
vt 0 1
vt 1 1
vt 1 0
vt 0 0
vt 0 1
vt 1 1
vt 1 0
vt 0 0
vt 0 1
vt 1 1
vt 1 0
vt 0 0
vt 0 1
vt 1 1
vt 1 0
vt 0 0
vt 0 1
vt 1 1
vt 1 0
vt 0 0
vt 0 1
vt 1 1
vt 1 0
vt 0 0
vn 0 0 -1
vn 1 0 0
vn 0 0 1
vn -1 0 0
vn 0 1 0
vn 0 -1 0
usemtl m_0
f 4/4/1 7/3/1 5/2/1 2/1/1
f 3/8/2 4/7/2 2/6/2 1/5/2
f 8/12/3 3/11/3 1/10/3 6/9/3
f 7/16/4 8/15/4 6/14/4 5/13/4
f 6/20/5 1/19/5 2/18/5 5/17/5
f 7/24/6 4/23/6 3/22/6 8/21/6
o sphere
v 0 1 0
v 0 2 0
v 0 1.9330127018922194 0.24999999999999997
v 0 1.75 0.4330127018922193
v 0 1.5 0.5
v 0 1.25 0.43301270189221935
v 0 1.0669872981077806 0.24999999999999997
v 0.12499999999999997 1.9330127018922194 0.21650635094610965
v 0.21650635094610962 1.75 0.375
v 0.24999999999999997 1.5 0.43301270189221935
v 0.21650635094610965 1.25 0.37500000000000006
v 0.12499999999999997 1.0669872981077806 0.21650635094610965
v 0.21650635094610962 1.9330127018922194 0.125
v 0.37499999999999994 1.75 0.2165063509461097
v 0.4330127018922193 1.5 0.25000000000000006
v 0.375 1.25 0.21650635094610973
v 0.21650635094610962 1.0669872981077806 0.125
v 0.24999999999999997 1.9330127018922194 1.5308084989341912e-17
v 0.4330127018922193 1.75 2.651438096812267e-17
v 0.5 1.5 3.061616997868383e-17
v 0.43301270189221935 1.25 2.6514380968122673e-17
v 0.24999999999999997 1.0669872981077806 1.5308084989341912e-17
v 0.21650635094610965 1.9330127018922194 -0.12499999999999993
v 0.375 1.75 -0.21650635094610957
v 0.43301270189221935 1.5 -0.2499999999999999
v 0.37500000000000006 1.25 -0.2165063509461096
v 0.21650635094610965 1.0669872981077806 -0.12499999999999993
v 0.12499999999999997 1.9330127018922194 -0.21650635094610965
v 0.21650635094610962 1.75 -0.375
v 0.24999999999999997 1.5 -0.43301270189221935
v 0.21650635094610965 1.25 -0.37500000000000006
v 0.12499999999999997 1.0669872981077806 -0.21650635094610965
v 3.0616169978683824e-17 1.9330127018922194 -0.24999999999999997
v 5.302876193624534e-17 1.75 -0.4330127018922193
v 6.123233995736766e-17 1.5 -0.5
v 5.3028761936245346e-17 1.25 -0.43301270189221935
v 3.0616169978683824e-17 1.0669872981077806 -0.24999999999999997
v -0.125 1.9330127018922194 -0.21650635094610962
v -0.2165063509461097 1.75 -0.37499999999999994
v -0.25000000000000006 1.5 -0.4330127018922193
v -0.21650635094610973 1.25 -0.375
v -0.125 1.0669872981077806 -0.21650635094610962
v -0.2165063509461096 1.9330127018922194 -0.12500000000000008
v -0.3749999999999999 1.75 -0.21650635094610984
v -0.43301270189221924 1.5 -0.2500000000000002
v -0.37499999999999994 1.25 -0.21650635094610987
v -0.2165063509461096 1.0669872981077806 -0.12500000000000008
v -0.24999999999999997 1.9330127018922194 -4.5924254968025736e-17
v -0.4330127018922193 1.75 -7.954314290436801e-17
v -0.5 1.5 -9.184850993605148e-17
v -0.43301270189221935 1.25 -7.954314290436801e-17
v -0.24999999999999997 1.0669872981077806 -4.5924254968025736e-17
v -0.21650635094610962 1.9330127018922194 0.125
v -0.37499999999999994 1.75 0.2165063509461097
v -0.4330127018922193 1.5 0.25000000000000006
v -0.375 1.25 0.21650635094610973
v -0.21650635094610962 1.0669872981077806 0.125
v -0.12500000000000008 1.9330127018922194 0.21650635094610957
v -0.21650635094610984 1.75 0.37499999999999983
v -0.2500000000000002 1.5 0.4330127018922192
v -0.21650635094610987 1.25 0.3749999999999999
v -0.12500000000000008 1.0669872981077806 0.21650635094610957
vt 0.1294125 0.74939375
vt 0 0.74939375
vt 0.06470625 1
vt 0.17678125 1
vt 0.22415 0.74555625
vt 0 0.74555625
vt 0.04736874999999999 1
vt 0.24148750000000002 1
vt 0.258825 0.7417625
vt 0 0.7417625
vt 0.01733750000000002 1
vt 0.258825 1
vt 0.24148750000000002 0.7417625
vt 0.01733750000000002 0.7417625
vt 0 1
vt 0.22415 1
vt 0.17678125 0.74555625
vt 0.04736874999999999 0.74555625
vt 0 1
vt 0 1
vt 0.1294125 1
vt 0.06470625 0.74939375
vt 0.1294125 0.74939375
vt 0 0.74939375
vt 0.06470625 1
vt 0.17678125 1
vt 0.22415 0.74555625
vt 0 0.74555625
vt 0.04736874999999999 1
vt 0.24148750000000002 1
vt 0.258825 0.7417625
vt 0 0.7417625
vt 0.01733750000000002 1
vt 0.258825 1
vt 0.24148750000000002 0.7417625
vt 0.01733750000000002 0.7417625
vt 0 1
vt 0.22415 1
vt 0.17678125 0.74555625
vt 0.04736874999999999 0.74555625
vt 0 1
vt 0 1
vt 0.1294125 1
vt 0.06470625 0.74939375
vt 0.1294125 0.74939375
vt 0 0.74939375
vt 0.06470625 1
vt 0.17678125 1
vt 0.22415 0.74555625
vt 0 0.74555625
vt 0.04736874999999999 1
vt 0.24148750000000002 1
vt 0.258825 0.7417625
vt 0 0.7417625
vt 0.01733750000000002 1
vt 0.258825 1
vt 0.24148750000000002 0.7417625
vt 0.01733750000000002 0.7417625
vt 0 1
vt 0.22415 1
vt 0.17678125 0.74555625
vt 0.04736874999999999 0.74555625
vt 0 1
vt 0 1
vt 0.1294125 1
vt 0.06470625 0.74939375
vt 0.1294125 0.74939375
vt 0 0.74939375
vt 0.06470625 1
vt 0.17678125 1
vt 0.22415 0.74555625
vt 0 0.74555625
vt 0.04736874999999999 1
vt 0.24148750000000002 1
vt 0.258825 0.7417625
vt 0 0.7417625
vt 0.01733750000000002 1
vt 0.258825 1
vt 0.24148750000000002 0.7417625
vt 0.01733750000000002 0.7417625
vt 0 1
vt 0.22415 1
vt 0.17678125 0.74555625
vt 0.04736874999999999 0.74555625
vt 0 1
vt 0 1
vt 0.1294125 1
vt 0.06470625 0.74939375
vt 0.1294125 0.74939375
vt 0 0.74939375
vt 0.06470625 1
vt 0.17678125 1
vt 0.22415 0.74555625
vt 0 0.74555625
vt 0.04736874999999999 1
vt 0.24148750000000002 1
vt 0.258825 0.7417625
vt 0 0.7417625
vt 0.01733750000000002 1
vt 0.258825 1
vt 0.24148750000000002 0.7417625
vt 0.01733750000000002 0.7417625
vt 0 1
vt 0.22415 1
vt 0.17678125 0.74555625
vt 0.04736874999999999 0.74555625
vt 0 1
vt 0 1
vt 0.1294125 1
vt 0.06470625 0.74939375
vt 0.1294125 0.74939375
vt 0 0.74939375
vt 0.06470625 1
vt 0.17678125 1
vt 0.22415 0.74555625
vt 0 0.74555625
vt 0.04736874999999999 1
vt 0.24148750000000002 1
vt 0.258825 0.7417625
vt 0 0.7417625
vt 0.01733750000000002 1
vt 0.258825 1
vt 0.24148750000000002 0.7417625
vt 0.01733750000000002 0.7417625
vt 0 1
vt 0.22415 1
vt 0.17678125 0.74555625
vt 0.04736874999999999 0.74555625
vt 0 1
vt 0 1
vt 0.1294125 1
vt 0.06470625 0.74939375
vt 0.1294125 0.74939375
vt 0 0.74939375
vt 0.06470625 1
vt 0.17678125 1
vt 0.22415 0.74555625
vt 0 0.74555625
vt 0.04736874999999999 1
vt 0.24148750000000002 1
vt 0.258825 0.7417625
vt 0 0.7417625
vt 0.01733750000000002 1
vt 0.258825 1
vt 0.24148750000000002 0.7417625
vt 0.01733750000000002 0.7417625
vt 0 1
vt 0.22415 1
vt 0.17678125 0.74555625
vt 0.04736874999999999 0.74555625
vt 0 1
vt 0 1
vt 0.1294125 1
vt 0.06470625 0.74939375
vt 0.1294125 0.74939375
vt 0 0.74939375
vt 0.06470625 1
vt 0.17678125 1
vt 0.22415 0.74555625
vt 0 0.74555625
vt 0.04736874999999999 1
vt 0.24148750000000002 1
vt 0.258825 0.7417625
vt 0 0.7417625
vt 0.01733750000000002 1
vt 0.258825 1
vt 0.24148750000000002 0.7417625
vt 0.01733750000000002 0.7417625
vt 0 1
vt 0.22415 1
vt 0.17678125 0.74555625
vt 0.04736874999999999 0.74555625
vt 0 1
vt 0 1
vt 0.1294125 1
vt 0.06470625 0.74939375
vt 0.1294125 0.74939375
vt 0 0.74939375
vt 0.06470625 1
vt 0.17678125 1
vt 0.22415 0.74555625
vt 0 0.74555625
vt 0.04736874999999999 1
vt 0.24148750000000002 1
vt 0.258825 0.7417625
vt 0 0.7417625
vt 0.01733750000000002 1
vt 0.258825 1
vt 0.24148750000000002 0.7417625
vt 0.01733750000000002 0.7417625
vt 0 1
vt 0.22415 1
vt 0.17678125 0.74555625
vt 0.04736874999999999 0.74555625
vt 0 1
vt 0 1
vt 0.1294125 1
vt 0.06470625 0.74939375
vt 0.1294125 0.74939375
vt 0 0.74939375
vt 0.06470625 1
vt 0.17678125 1
vt 0.22415 0.74555625
vt 0 0.74555625
vt 0.04736874999999999 1
vt 0.24148750000000002 1
vt 0.258825 0.7417625
vt 0 0.7417625
vt 0.01733750000000002 1
vt 0.258825 1
vt 0.24148750000000002 0.7417625
vt 0.01733750000000002 0.7417625
vt 0 1
vt 0.22415 1
vt 0.17678125 0.74555625
vt 0.04736874999999999 0.74555625
vt 0 1
vt 0 1
vt 0.1294125 1
vt 0.06470625 0.74939375
vt 0.1294125 0.74939375
vt 0 0.74939375
vt 0.06470625 1
vt 0.17678125 1
vt 0.22415 0.74555625
vt 0 0.74555625
vt 0.04736874999999999 1
vt 0.24148750000000002 1
vt 0.258825 0.7417625
vt 0 0.7417625
vt 0.01733750000000002 1
vt 0.258825 1
vt 0.24148750000000002 0.7417625
vt 0.01733750000000002 0.7417625
vt 0 1
vt 0.22415 1
vt 0.17678125 0.74555625
vt 0.04736874999999999 0.74555625
vt 0 1
vt 0 1
vt 0.1294125 1
vt 0.06470625 0.74939375
vt 0.1294125 0.74939375
vt 0 0.74939375
vt 0.06470625 1
vt 0.17678125 1
vt 0.22415 0.74555625
vt 0 0.74555625
vt 0.04736874999999999 1
vt 0.24148750000000002 1
vt 0.258825 0.7417625
vt 0 0.7417625
vt 0.01733750000000002 1
vt 0.258825 1
vt 0.24148750000000002 0.7417625
vt 0.01733750000000002 0.7417625
vt 0 1
vt 0.59915 0.625
vt 0.55178125 0.37055625000000003
vt 0.42236874999999996 0.37055625000000003
vt 0.375 0.625
vt 0 1
vt 0.1294125 1
vt 0.06470625 0.74939375
vn 0.06918418399436428 0.9636113749942804 0.2581988897471611
vn 0.18615678789738552 0.6947465906068658 0.6947465906068657
vn 0.2505628070857315 0.25056280708573164 0.9351131265310294
vn 0.25056280708573153 -0.2505628070857316 0.9351131265310294
vn 0.18615678789738557 -0.6947465906068656 0.6947465906068659
vn 0.06918418399436428 -0.9636113749942804 0.2581988897471611
vn 0.18901470575279683 0.9636113749942804 0.18901470575279683
vn 0.5085898027094802 0.6947465906068658 0.5085898027094803
vn 0.6845503194452978 0.2505628070857317 0.6845503194452979
vn 0.6845503194452978 -0.2505628070857316 0.6845503194452979
vn 0.5085898027094803 -0.6947465906068656 0.5085898027094805
vn 0.18901470575279683 -0.9636113749942804 0.18901470575279683
vn 0.2581988897471611 0.9636113749942804 0.06918418399436434
vn 0.6947465906068658 0.6947465906068658 0.18615678789738554
vn 0.9351131265310293 0.25056280708573175 0.25056280708573164
vn 0.9351131265310295 -0.25056280708573164 0.2505628070857317
vn 0.6947465906068658 -0.6947465906068656 0.18615678789738568
vn 0.2581988897471611 -0.9636113749942804 0.06918418399436434
vn 0.2581988897471611 0.9636113749942803 -0.0691841839943643
vn 0.6947465906068657 0.6947465906068658 -0.18615678789738554
vn 0.9351131265310295 0.2505628070857317 -0.2505628070857316
vn 0.9351131265310295 -0.2505628070857316 -0.2505628070857316
vn 0.6947465906068658 -0.6947465906068656 -0.1861567878973856
vn 0.2581988897471611 -0.9636113749942803 -0.0691841839943643
vn 0.1890147057527968 0.9636113749942803 -0.18901470575279675
vn 0.5085898027094803 0.6947465906068657 -0.5085898027094802
vn 0.684550319445298 0.25056280708573164 -0.6845503194452977
vn 0.684550319445298 -0.25056280708573153 -0.6845503194452977
vn 0.5085898027094804 -0.6947465906068656 -0.5085898027094803
vn 0.1890147057527968 -0.9636113749942803 -0.18901470575279675
vn 0.0691841839943643 0.9636113749942804 -0.2581988897471611
vn 0.18615678789738543 0.6947465906068658 -0.6947465906068656
vn 0.2505628070857316 0.25056280708573175 -0.9351131265310295
vn 0.25056280708573153 -0.25056280708573153 -0.9351131265310294
vn 0.1861567878973856 -0.6947465906068656 -0.6947465906068658
vn 0.0691841839943643 -0.9636113749942803 -0.2581988897471611
vn -0.06918418399436431 0.9636113749942803 -0.2581988897471611
vn -0.18615678789738552 0.6947465906068657 -0.6947465906068658
vn -0.2505628070857316 0.2505628070857317 -0.9351131265310295
vn -0.2505628070857316 -0.25056280708573153 -0.9351131265310294
vn -0.18615678789738568 -0.6947465906068656 -0.6947465906068659
vn -0.06918418399436431 -0.9636113749942803 -0.2581988897471611
vn -0.18901470575279675 0.9636113749942804 -0.18901470575279686
vn -0.5085898027094801 0.6947465906068658 -0.5085898027094803
vn -0.6845503194452977 0.25056280708573175 -0.684550319445298
vn -0.6845503194452977 -0.25056280708573164 -0.684550319445298
vn -0.5085898027094802 -0.6947465906068656 -0.5085898027094805
vn -0.18901470575279675 -0.9636113749942804 -0.18901470575279686
vn -0.25819888974716104 0.9636113749942803 -0.06918418399436435
vn -0.6947465906068657 0.6947465906068657 -0.18615678789738568
vn -0.9351131265310293 0.25056280708573175 -0.25056280708573175
vn -0.9351131265310293 -0.25056280708573164 -0.2505628070857318
vn -0.6947465906068658 -0.6947465906068657 -0.1861567878973857
vn -0.2581988897471611 -0.9636113749942803 -0.06918418399436436
vn -0.2581988897471611 0.9636113749942803 0.0691841839943643
vn -0.6947465906068657 0.6947465906068658 0.18615678789738552
vn -0.9351131265310295 0.2505628070857317 0.2505628070857316
vn -0.9351131265310294 -0.25056280708573153 0.2505628070857316
vn -0.6947465906068659 -0.6947465906068656 0.1861567878973857
vn -0.2581988897471611 -0.9636113749942803 0.0691841839943643
vn -0.1890147057527968 0.9636113749942803 0.18901470575279675
vn -0.5085898027094803 0.6947465906068658 0.5085898027094802
vn -0.6845503194452979 0.2505628070857317 0.6845503194452977
vn -0.6845503194452979 -0.2505628070857316 0.6845503194452978
vn -0.5085898027094804 -0.6947465906068656 0.5085898027094803
vn -0.18901470575279683 -0.9636113749942804 0.18901470575279677
vn -0.06918418399436439 0.9636113749942803 0.2581988897471611
vn -0.1861567878973858 0.6947465906068657 0.6947465906068657
vn -0.25056280708573186 0.25056280708573175 0.9351131265310293
vn -0.250562807085732 -0.25056280708573164 0.9351131265310293
vn -0.18615678789738577 -0.6947465906068657 0.6947465906068658
vn -0.06918418399436439 -0.9636113749942803 0.2581988897471611
usemtl m_0
f 11/25/7 16/26/7 10/27/7
f 11/28/8 12/29/8 17/30/8 16/31/8
f 12/32/9 13/33/9 18/34/9 17/35/9
f 13/36/10 14/37/10 19/38/10 18/39/10
f 14/40/11 15/41/11 20/42/11 19/43/11
f 20/44/12 15/45/12 9/46/12
f 16/47/13 21/48/13 10/49/13
f 16/50/14 17/51/14 22/52/14 21/53/14
f 17/54/15 18/55/15 23/56/15 22/57/15
f 18/58/16 19/59/16 24/60/16 23/61/16
f 19/62/17 20/63/17 25/64/17 24/65/17
f 25/66/18 20/67/18 9/68/18
f 21/69/19 26/70/19 10/71/19
f 21/72/20 22/73/20 27/74/20 26/75/20
f 22/76/21 23/77/21 28/78/21 27/79/21
f 23/80/22 24/81/22 29/82/22 28/83/22
f 24/84/23 25/85/23 30/86/23 29/87/23
f 30/88/24 25/89/24 9/90/24
f 26/91/25 31/92/25 10/93/25
f 26/94/26 27/95/26 32/96/26 31/97/26
f 27/98/27 28/99/27 33/100/27 32/101/27
f 28/102/28 29/103/28 34/104/28 33/105/28
f 29/106/29 30/107/29 35/108/29 34/109/29
f 35/110/30 30/111/30 9/112/30
f 31/113/31 36/114/31 10/115/31
f 31/116/32 32/117/32 37/118/32 36/119/32
f 32/120/33 33/121/33 38/122/33 37/123/33
f 33/124/34 34/125/34 39/126/34 38/127/34
f 34/128/35 35/129/35 40/130/35 39/131/35
f 40/132/36 35/133/36 9/134/36
f 36/135/37 41/136/37 10/137/37
f 36/138/38 37/139/38 42/140/38 41/141/38
f 37/142/39 38/143/39 43/144/39 42/145/39
f 38/146/40 39/147/40 44/148/40 43/149/40
f 39/150/41 40/151/41 45/152/41 44/153/41
f 45/154/42 40/155/42 9/156/42
f 41/157/43 46/158/43 10/159/43
f 41/160/44 42/161/44 47/162/44 46/163/44
f 42/164/45 43/165/45 48/166/45 47/167/45
f 43/168/46 44/169/46 49/170/46 48/171/46
f 44/172/47 45/173/47 50/174/47 49/175/47
f 50/176/48 45/177/48 9/178/48
f 46/179/49 51/180/49 10/181/49
f 46/182/50 47/183/50 52/184/50 51/185/50
f 47/186/51 48/187/51 53/188/51 52/189/51
f 48/190/52 49/191/52 54/192/52 53/193/52
f 49/194/53 50/195/53 55/196/53 54/197/53
f 55/198/54 50/199/54 9/200/54
f 51/201/55 56/202/55 10/203/55
f 51/204/56 52/205/56 57/206/56 56/207/56
f 52/208/57 53/209/57 58/210/57 57/211/57
f 53/212/58 54/213/58 59/214/58 58/215/58
f 54/216/59 55/217/59 60/218/59 59/219/59
f 60/220/60 55/221/60 9/222/60
f 56/223/61 61/224/61 10/225/61
f 56/226/62 57/227/62 62/228/62 61/229/62
f 57/230/63 58/231/63 63/232/63 62/233/63
f 58/234/64 59/235/64 64/236/64 63/237/64
f 59/238/65 60/239/65 65/240/65 64/241/65
f 65/242/66 60/243/66 9/244/66
f 61/245/67 66/246/67 10/247/67
f 61/248/68 62/249/68 67/250/68 66/251/68
f 62/252/69 63/253/69 68/254/69 67/255/69
f 63/256/70 64/257/70 69/258/70 68/259/70
f 64/260/71 65/261/71 70/262/71 69/263/71
f 70/264/72 65/265/72 9/266/72
f 66/267/73 11/268/73 10/269/73
f 66/270/74 67/271/74 12/272/74 11/273/74
f 67/274/75 68/275/75 13/276/75 12/277/75
f 68/278/76 69/279/76 14/280/76 13/281/76
f 69/282/77 70/283/77 15/284/77 14/285/77
f 15/286/78 70/287/78 9/288/78